<?xml version="1.0" encoding="utf-8"?>
<!-- Generator: Adobe Illustrator 18.1.0, SVG Export Plug-In . SVG Version: 6.00 Build 0)  -->
<svg version="1.1" id="Lager_1" xmlns="http://www.w3.org/2000/svg" xmlns:xlink="http://www.w3.org/1999/xlink" x="0px" y="0px"
	 viewBox="0 0 145 79.5" enable-background="new 0 0 145 79.5" xml:space="preserve">
<g>
	<path fill="#E64842" d="M15.5,70.6H7.3l-2.1,4.6H2.1l9.5-20.3l9.1,20.3h-3.2L15.5,70.6z M14.3,67.9l-2.8-6.5l-3,6.5H14.3z"/>
	<path fill="#E64842" d="M41.4,75.2h-3.7l-1.5-1.6c-1.6,1.1-3.5,1.6-5.5,1.6c-2.6,0-4.9-0.9-6.9-2.6c-2.2-1.9-3.3-4.4-3.3-7.4
		c0-3,1-5.4,3.1-7.4c2-1.9,4.4-2.9,7.1-2.9c2.5,0,4.7,0.8,6.7,2.5c2.4,2,3.6,4.6,3.6,7.9c0,2.5-0.9,4.8-2.8,6.8L41.4,75.2z
		 M33.3,67.1l2.8,2.8c1.3-1.3,1.9-2.9,1.9-4.8c0-2.1-0.7-3.9-2.1-5.3c-1.4-1.4-3.1-2.1-5.2-2.1c-2.1,0-3.8,0.7-5.2,2.1
		c-1.4,1.4-2,3.2-2,5.4c0,2.1,0.7,3.8,2.1,5.2c1.5,1.4,3.1,2.1,5,2.1c1.3,0,2.4-0.3,3.5-0.9l-4.6-4.5H33.3z"/>
	<path fill="#E64842" d="M47.2,54.9v12c0,1.7,0.3,3,0.8,3.8c0.8,1.1,2,1.7,3.5,1.7c1.5,0,2.7-0.6,3.5-1.7c0.6-0.8,0.8-2,0.8-3.8v-12
		h3v12.9c0,2.1-0.7,3.8-2,5.2c-1.5,1.5-3.3,2.3-5.4,2.3c-2.1,0-4-0.8-5.4-2.3c-1.3-1.4-2-3.1-2-5.2V54.9H47.2z"/>
	<path fill="#E64842" d="M66.3,54.9v20.3h-3V54.9H66.3z"/>
	<path fill="#E64842" d="M70.7,75.2V54.9l14.6,13.9V54.9h3v20.3L73.7,60.9v14.3H70.7z"/>
	<path fill="#E64842" d="M99,57.7v17.5h-3V57.7h-4.6v-2.8h12.2v2.8H99z"/>
	<path fill="#E64842" d="M113.5,66.5l6.3,8.7h-3.7l-5.8-8.3h-0.6v8.3h-3.1V54.9h3.6c2.7,0,4.6,0.5,5.8,1.5c1.3,1.1,2,2.6,2,4.4
		c0,1.4-0.4,2.7-1.2,3.7C116,65.6,114.9,66.3,113.5,66.5z M109.7,64.2h1c2.9,0,4.4-1.1,4.4-3.3c0-2.1-1.4-3.1-4.2-3.1h-1.1V64.2z"/>
	<path fill="#E64842" d="M135.2,70.6H127l-2.1,4.6h-3.1l9.5-20.3l9.1,20.3h-3.2L135.2,70.6z M134,67.9l-2.8-6.5l-3,6.5H134z"/>
</g>
<g>
	<g>
		<linearGradient id="SVGID_1_" gradientUnits="userSpaceOnUse" x1="61.6257" y1="42.3124" x2="82.742" y2="42.3124">
			<stop  offset="0" style="stop-color:#E64842"/>
			<stop  offset="1" style="stop-color:#BA4746"/>
		</linearGradient>
		<path fill="url(#SVGID_1_)" d="M62,42.2l-0.4,0.6l5.4,3.1c2.3,1.3,6.1,1.3,8.4,0l7.3-4.2l-3-4L62,42.2z"/>
		<linearGradient id="SVGID_2_" gradientUnits="userSpaceOnUse" x1="79.7684" y1="38.2801" x2="90.869" y2="38.2801">
			<stop  offset="0" style="stop-color:#E64842"/>
			<stop  offset="1" style="stop-color:#BA4746"/>
		</linearGradient>
		<path fill="url(#SVGID_2_)" d="M90.9,34.9l-11.1,2.8l3,4l4.6-2.7C88.8,38.2,90.1,36.6,90.9,34.9z"/>
		<linearGradient id="SVGID_3_" gradientUnits="userSpaceOnUse" x1="81.485" y1="9.7747" x2="88.3809" y2="9.7747">
			<stop  offset="0" style="stop-color:#E64842"/>
			<stop  offset="1" style="stop-color:#BA4746"/>
		</linearGradient>
		<path fill="url(#SVGID_3_)" d="M88.4,11.3c-0.3-0.3-0.7-0.5-1-0.7l-4.1-2.4l-1.8,2.8L88.4,11.3z"/>
		<linearGradient id="SVGID_4_" gradientUnits="userSpaceOnUse" x1="55.9736" y1="9.4796" x2="59.2935" y2="9.4796">
			<stop  offset="0" style="stop-color:#E64842"/>
			<stop  offset="1" style="stop-color:#BA4746"/>
		</linearGradient>
		<polygon fill="url(#SVGID_4_)" points="58.2,8.8 56,10.1 59.3,10.2 		"/>
		<polygon fill="#E64842" points="61,42.5 61.6,42.8 62,42.2 		"/>
		<linearGradient id="SVGID_5_" gradientUnits="userSpaceOnUse" x1="58.2278" y1="6.8774" x2="83.2569" y2="6.8774">
			<stop  offset="0" style="stop-color:#E64842"/>
			<stop  offset="1" style="stop-color:#BA4746"/>
		</linearGradient>
		<path fill="url(#SVGID_5_)" d="M81.5,11.1l1.8-2.8l-7.8-4.5c-2.3-1.3-6.1-1.3-8.4,0l-8.8,5.1l1.1,1.4L81.5,11.1z"/>
		<linearGradient id="SVGID_6_" gradientUnits="userSpaceOnUse" x1="61.9869" y1="34.5167" x2="79.7684" y2="34.5167">
			<stop  offset="0" style="stop-color:#E64842"/>
			<stop  offset="1" style="stop-color:#BA4746"/>
		</linearGradient>
		<polygon fill="url(#SVGID_6_)" points="62,42.2 79.8,37.7 71.6,26.8 		"/>
		<linearGradient id="SVGID_7_" gradientUnits="userSpaceOnUse" x1="71.6476" y1="24.3789" x2="91.5981" y2="24.3789">
			<stop  offset="0" style="stop-color:#E64842"/>
			<stop  offset="1" style="stop-color:#BA4746"/>
		</linearGradient>
		<path fill="url(#SVGID_7_)" d="M91.6,17.9c0-2.3-1.4-5-3.2-6.6l-6.9-0.3l-9.8,15.7l8.1,10.9l11.1-2.8c0.5-1,0.7-2.1,0.7-3.1V17.9z
			"/>
		<linearGradient id="SVGID_8_" gradientUnits="userSpaceOnUse" x1="50.8221" y1="26.2743" x2="71.6476" y2="26.2743">
			<stop  offset="0" style="stop-color:#E64842"/>
			<stop  offset="1" style="stop-color:#BA4746"/>
		</linearGradient>
		<path fill="url(#SVGID_8_)" d="M59.3,10.2L56,10.1L55,10.6c-2.3,1.3-4.2,4.6-4.2,7.3v13.8c0,2.7,1.9,6,4.2,7.3l6,3.5l0.9-0.2
			l9.7-15.5L59.3,10.2z"/>
		<linearGradient id="SVGID_9_" gradientUnits="userSpaceOnUse" x1="59.2935" y1="18.4931" x2="81.485" y2="18.4931">
			<stop  offset="0" style="stop-color:#E64842"/>
			<stop  offset="1" style="stop-color:#BA4746"/>
		</linearGradient>
		<polygon fill="url(#SVGID_9_)" points="71.6,26.8 81.5,11.1 59.3,10.2 		"/>
	</g>
	<linearGradient id="SVGID_10_" gradientUnits="userSpaceOnUse" x1="59.426" y1="5.8236" x2="81.8656" y2="41.9843">
		<stop  offset="0" style="stop-color:#F8CC9E"/>
		<stop  offset="0.3061" style="stop-color:#F3B097;stop-opacity:0"/>
	</linearGradient>
	<path fill="url(#SVGID_10_)" d="M88.4,11.3c-0.3-0.3-0.7-0.5-1-0.7l-4.1-2.4l-7.8-4.5c-2.3-1.3-6.1-1.3-8.4,0l-8.8,5.1L56,10.1
		L55,10.6c-2.3,1.3-4.2,4.6-4.2,7.3v13.8c0,2.7,1.9,6,4.2,7.3l6,3.5l0.6,0.3l5.4,3.1c2.3,1.3,6.1,1.3,8.4,0l7.3-4.2l4.6-2.7
		c1.4-0.8,2.7-2.4,3.5-4.1c0.5-1,0.7-2.1,0.7-3.1V17.9C91.6,15.6,90.2,12.9,88.4,11.3z"/>
	<path fill="#FFFFFF" d="M82.3,35.5h-3.9l-1.6-1.7c-1.7,1.1-3.6,1.7-5.8,1.7c-2.7,0-5.2-0.9-7.3-2.8c-2.3-2-3.5-4.7-3.5-7.8
		c0-3.1,1.1-5.7,3.3-7.8c2.1-2,4.6-3,7.5-3c2.6,0,5,0.9,7.1,2.7c2.5,2.1,3.8,4.9,3.8,8.3c0,2.7-1,5.1-3,7.1L82.3,35.5z M73.7,27l3,3
		c1.3-1.4,2-3.1,2-5.1c0-2.2-0.7-4.1-2.2-5.6C75,17.8,73.1,17,70.9,17c-2.2,0-4,0.7-5.5,2.2c-1.4,1.5-2.2,3.4-2.2,5.7
		c0,2.2,0.7,4.1,2.2,5.5c1.5,1.5,3.3,2.2,5.3,2.2c1.3,0,2.6-0.3,3.7-0.9L69.6,27H73.7z"/>
</g>
</svg>
