<?xml version="1.0" encoding="utf-8"?>
<!-- Generator: Adobe Illustrator 18.1.0, SVG Export Plug-In . SVG Version: 6.00 Build 0)  -->
<svg version="1.1" id="Lager_1" xmlns="http://www.w3.org/2000/svg" xmlns:xlink="http://www.w3.org/1999/xlink" x="0px" y="0px"
	 viewBox="0 0 723.9 420.4" enable-background="new 0 0 723.9 420.4" xml:space="preserve">
<g>
	<g>
		<path fill="#E64842" d="M102.3,362.6h-36l-9.4,20.4H43.2l41.7-89.5l40.2,89.5h-13.9L102.3,362.6z M97.1,350.7l-12.5-28.6
			l-13.1,28.6H97.1z"/>
		<path fill="#E64842" d="M216.3,383.1h-16.4l-6.8-6.9c-7.2,4.6-15.2,6.9-24,6.9c-11.4,0-21.6-3.9-30.5-11.6
			c-9.7-8.5-14.5-19.4-14.5-32.7c0-13,4.6-23.9,13.7-32.5c8.9-8.4,19.3-12.6,31.4-12.6c11,0,20.8,3.7,29.5,11.1
			c10.4,8.9,15.7,20.4,15.7,34.7c0,11.2-4.1,21.1-12.4,29.8L216.3,383.1z M180.4,347.3l12.5,12.5c5.5-5.7,8.3-12.8,8.3-21.3
			c0-9.3-3.1-17-9.2-23.3c-6.2-6.3-13.8-9.4-22.9-9.4c-9.2,0-16.9,3.1-22.8,9.4c-6,6.2-9,14.1-9,23.6c0,9.3,3.1,16.9,9.3,22.9
			c6.4,6.1,13.8,9.2,22.1,9.2c5.6,0,10.7-1.3,15.3-3.9l-20.3-19.7H180.4z"/>
		<path fill="#E64842" d="M241.5,293.6v52.9c0,7.5,1.2,13.1,3.7,16.6c3.7,5,8.9,7.6,15.5,7.6c6.7,0,11.9-2.5,15.6-7.6
			c2.5-3.4,3.7-8.9,3.7-16.6v-52.9h13.3v56.6c0,9.3-2.9,16.9-8.7,22.9c-6.5,6.7-14.5,10-23.9,10c-9.5,0-17.4-3.3-23.9-10
			c-5.8-6-8.7-13.6-8.7-22.9v-56.6H241.5z"/>
		<path fill="#E64842" d="M325.7,293.6v89.3h-13.3v-89.3H325.7z"/>
		<path fill="#E64842" d="M344.9,382.9v-89.3l64.1,61.1v-61.1h13.3v89.3l-64.1-63v63H344.9z"/>
		<path fill="#E64842" d="M469.4,306.1v76.9h-13.3v-76.9h-20.2v-12.5h53.6v12.5H469.4z"/>
		<path fill="#E64842" d="M533.5,344.9l27.7,38.1h-16.5l-25.5-36.6h-2.4V383h-13.5v-89.3H519c11.8,0,20.3,2.2,25.6,6.7
			c5.8,4.9,8.7,11.5,8.7,19.6c0,6.3-1.8,11.8-5.4,16.3C544.2,340.7,539.4,343.6,533.5,344.9z M516.7,334.7h4.3
			c12.8,0,19.1-4.9,19.1-14.6c0-9.1-6.2-13.7-18.6-13.7h-4.8V334.7z"/>
		<path fill="#E64842" d="M628.6,362.6h-36l-9.4,20.4h-13.7l41.7-89.5l40.2,89.5h-13.9L628.6,362.6z M623.4,350.7l-12.5-28.6
			l-13.1,28.6H623.4z"/>
	</g>
	<g>
		<g>
			<linearGradient id="SVGID_1_" gradientUnits="userSpaceOnUse" x1="305.0937" y1="238.3416" x2="397.9775" y2="238.3416">
				<stop  offset="0" style="stop-color:#E64842"/>
				<stop  offset="1" style="stop-color:#BA4746"/>
			</linearGradient>
			<path fill="url(#SVGID_1_)" d="M306.7,238l-1.6,2.5l23.6,13.6c10.2,5.9,26.9,5.9,37,0l32.2-18.6l-13.1-17.6L306.7,238z"/>
			<linearGradient id="SVGID_2_" gradientUnits="userSpaceOnUse" x1="384.8975" y1="220.6051" x2="433.7256" y2="220.6051">
				<stop  offset="0" style="stop-color:#E64842"/>
				<stop  offset="1" style="stop-color:#BA4746"/>
			</linearGradient>
			<path fill="url(#SVGID_2_)" d="M433.7,205.6l-48.8,12.5l13.1,17.6l20.4-11.8C424.8,220.2,430.4,213.2,433.7,205.6z"/>
			<linearGradient id="SVGID_3_" gradientUnits="userSpaceOnUse" x1="392.4482" y1="95.2188" x2="422.7812" y2="95.2188">
				<stop  offset="0" style="stop-color:#E64842"/>
				<stop  offset="1" style="stop-color:#BA4746"/>
			</linearGradient>
			<path fill="url(#SVGID_3_)" d="M422.8,102c-1.4-1.2-2.9-2.3-4.4-3.2l-18.2-10.5l-7.8,12.5L422.8,102z"/>
			<linearGradient id="SVGID_4_" gradientUnits="userSpaceOnUse" x1="280.2319" y1="93.921" x2="294.835" y2="93.921">
				<stop  offset="0" style="stop-color:#E64842"/>
				<stop  offset="1" style="stop-color:#BA4746"/>
			</linearGradient>
			<polygon fill="url(#SVGID_4_)" points="290.1,90.8 280.2,96.5 294.8,97.1 			"/>
			<polygon fill="#E64842" points="302.5,239.1 305.1,240.6 306.7,238 			"/>
			<linearGradient id="SVGID_5_" gradientUnits="userSpaceOnUse" x1="290.1475" y1="82.4746" x2="400.2422" y2="82.4746">
				<stop  offset="0" style="stop-color:#E64842"/>
				<stop  offset="1" style="stop-color:#BA4746"/>
			</linearGradient>
			<path fill="url(#SVGID_5_)" d="M392.4,100.9l7.8-12.5l-34.5-19.9c-10.2-5.9-26.9-5.9-37,0l-38.6,22.3l4.7,6.3L392.4,100.9z"/>
			<linearGradient id="SVGID_6_" gradientUnits="userSpaceOnUse" x1="306.6826" y1="204.0508" x2="384.8975" y2="204.0508">
				<stop  offset="0" style="stop-color:#E64842"/>
				<stop  offset="1" style="stop-color:#BA4746"/>
			</linearGradient>
			<polygon fill="url(#SVGID_6_)" points="306.7,238 384.9,218.1 349.2,170.1 			"/>
			<linearGradient id="SVGID_7_" gradientUnits="userSpaceOnUse" x1="349.1768" y1="159.4581" x2="436.9326" y2="159.4581">
				<stop  offset="0" style="stop-color:#E64842"/>
				<stop  offset="1" style="stop-color:#BA4746"/>
			</linearGradient>
			<path fill="url(#SVGID_7_)" d="M436.9,131c0-10-6.1-22-14.2-28.9l-30.3-1.2l-43.3,69.2l35.7,48l48.8-12.5c2-4.6,3.2-9.4,3.2-13.8
				V131z"/>
			<linearGradient id="SVGID_8_" gradientUnits="userSpaceOnUse" x1="257.5723" y1="167.7955" x2="349.1768" y2="167.7955">
				<stop  offset="0" style="stop-color:#E64842"/>
				<stop  offset="1" style="stop-color:#BA4746"/>
			</linearGradient>
			<path fill="url(#SVGID_8_)" d="M294.8,97.1l-14.6-0.6l-4.1,2.4c-10.2,5.9-18.5,20.3-18.5,32.1v60.8c0,11.8,8.3,26.2,18.5,32.1
				l26.4,15.3l4.2-1.1l42.5-68L294.8,97.1z"/>
			<linearGradient id="SVGID_9_" gradientUnits="userSpaceOnUse" x1="294.835" y1="133.5684" x2="392.4482" y2="133.5684">
				<stop  offset="0" style="stop-color:#E64842"/>
				<stop  offset="1" style="stop-color:#BA4746"/>
			</linearGradient>
			<polygon fill="url(#SVGID_9_)" points="349.2,170.1 392.4,100.9 294.8,97.1 			"/>
		</g>
		<linearGradient id="SVGID_10_" gradientUnits="userSpaceOnUse" x1="295.4177" y1="77.8394" x2="394.1223" y2="236.8984">
			<stop  offset="0" style="stop-color:#F8CC9E"/>
			<stop  offset="0.3061" style="stop-color:#F3B097;stop-opacity:0"/>
		</linearGradient>
		<path fill="url(#SVGID_10_)" d="M422.8,102c-1.4-1.2-2.9-2.3-4.4-3.2l-18.2-10.5l-34.5-19.9c-10.2-5.9-26.9-5.9-37,0l-38.6,22.3
			l-9.9,5.7l-4.1,2.4c-10.2,5.9-18.5,20.3-18.5,32.1v60.8c0,11.8,8.3,26.2,18.5,32.1l26.4,15.3l2.6,1.5l23.6,13.6
			c10.2,5.9,26.9,5.9,37,0l32.2-18.6l20.4-11.8c6.3-3.7,12-10.7,15.3-18.2c2-4.6,3.2-9.4,3.2-13.8V131
			C436.9,120.9,430.9,109,422.8,102z"/>
		<path fill="#FFFFFF" d="M395.8,208.6h-17.3l-7.1-7.3c-7.6,4.9-16,7.3-25.3,7.3c-12.1,0-22.8-4.1-32.1-12.3
			c-10.2-9-15.3-20.5-15.3-34.5c0-13.7,4.8-25.2,14.4-34.3c9.4-8.9,20.4-13.3,33.1-13.3c11.6,0,21.9,3.9,31.1,11.7
			c11,9.4,16.5,21.6,16.5,36.6c0,11.8-4.3,22.3-13,31.4L395.8,208.6z M358,170.8l13.2,13.1c5.8-6,8.7-13.5,8.7-22.4
			c0-9.8-3.2-18-9.7-24.6c-6.5-6.6-14.5-9.9-24.2-9.9c-9.7,0-17.8,3.3-24.1,9.9c-6.3,6.6-9.5,14.9-9.5,24.9c0,9.8,3.3,17.8,9.8,24.1
			c6.8,6.4,14.6,9.7,23.3,9.7c5.9,0,11.3-1.4,16.1-4.1l-21.4-20.7H358z"/>
	</g>
	<g>
		<g>
			<linearGradient id="SVGID_11_" gradientUnits="userSpaceOnUse" x1="-932.2256" y1="-308.5539" x2="-839.3418" y2="-308.5539">
				<stop  offset="0" style="stop-color:#E64842"/>
				<stop  offset="1" style="stop-color:#BA4746"/>
			</linearGradient>
			<path fill="url(#SVGID_11_)" d="M-930.6-308.9l-1.6,2.5l23.6,13.6c10.2,5.9,26.9,5.9,37,0l32.2-18.6l-13.1-17.6L-930.6-308.9z"/>
			<linearGradient id="SVGID_12_" gradientUnits="userSpaceOnUse" x1="-852.4219" y1="-326.2904" x2="-803.5938" y2="-326.2904">
				<stop  offset="0" style="stop-color:#E64842"/>
				<stop  offset="1" style="stop-color:#BA4746"/>
			</linearGradient>
			<path fill="url(#SVGID_12_)" d="M-803.6-341.3l-48.8,12.5l13.1,17.6l20.4-11.8C-812.6-326.7-806.9-333.7-803.6-341.3z"/>
			<linearGradient id="SVGID_13_" gradientUnits="userSpaceOnUse" x1="-844.8711" y1="-451.6767" x2="-814.5381" y2="-451.6767">
				<stop  offset="0" style="stop-color:#E64842"/>
				<stop  offset="1" style="stop-color:#BA4746"/>
			</linearGradient>
			<path fill="url(#SVGID_13_)" d="M-814.5-444.9c-1.4-1.2-2.9-2.3-4.4-3.2l-18.2-10.5l-7.8,12.5L-814.5-444.9z"/>
			<linearGradient id="SVGID_14_" gradientUnits="userSpaceOnUse" x1="-957.0874" y1="-452.9745" x2="-942.4844" y2="-452.9745">
				<stop  offset="0" style="stop-color:#E64842"/>
				<stop  offset="1" style="stop-color:#BA4746"/>
			</linearGradient>
			<polygon fill="url(#SVGID_14_)" points="-947.2,-456.1 -957.1,-450.4 -942.5,-449.8 			"/>
			<polygon fill="#E64842" points="-934.8,-307.8 -932.2,-306.3 -930.6,-308.9 			"/>
			<linearGradient id="SVGID_15_" gradientUnits="userSpaceOnUse" x1="-947.1719" y1="-464.4209" x2="-837.0771" y2="-464.4209">
				<stop  offset="0" style="stop-color:#E64842"/>
				<stop  offset="1" style="stop-color:#BA4746"/>
			</linearGradient>
			<path fill="url(#SVGID_15_)" d="M-844.9-446l7.8-12.5l-34.5-19.9c-10.2-5.9-26.9-5.9-37,0l-38.6,22.3l4.7,6.3L-844.9-446z"/>
			<linearGradient id="SVGID_16_" gradientUnits="userSpaceOnUse" x1="-930.6367" y1="-342.8447" x2="-852.4219" y2="-342.8447">
				<stop  offset="0" style="stop-color:#E64842"/>
				<stop  offset="1" style="stop-color:#BA4746"/>
			</linearGradient>
			<polygon fill="url(#SVGID_16_)" points="-930.6,-308.9 -852.4,-328.8 -888.1,-376.8 			"/>
			<linearGradient id="SVGID_17_" gradientUnits="userSpaceOnUse" x1="-888.1426" y1="-387.4374" x2="-800.3867" y2="-387.4374">
				<stop  offset="0" style="stop-color:#E64842"/>
				<stop  offset="1" style="stop-color:#BA4746"/>
			</linearGradient>
			<path fill="url(#SVGID_17_)" d="M-800.4-415.9c0-10-6.1-22-14.2-28.9l-30.3-1.2l-43.3,69.2l35.7,48l48.8-12.5
				c2-4.6,3.2-9.4,3.2-13.8V-415.9z"/>
			<linearGradient id="SVGID_18_" gradientUnits="userSpaceOnUse" x1="-979.7471" y1="-379.1" x2="-888.1426" y2="-379.1">
				<stop  offset="0" style="stop-color:#E64842"/>
				<stop  offset="1" style="stop-color:#BA4746"/>
			</linearGradient>
			<path fill="url(#SVGID_18_)" d="M-942.5-449.8l-14.6-0.6l-4.1,2.4c-10.2,5.9-18.5,20.3-18.5,32.1v60.8c0,11.8,8.3,26.2,18.5,32.1
				l26.4,15.3l4.2-1.1l42.5-68L-942.5-449.8z"/>
			<linearGradient id="SVGID_19_" gradientUnits="userSpaceOnUse" x1="-942.4844" y1="-413.3271" x2="-844.8711" y2="-413.3271">
				<stop  offset="0" style="stop-color:#E64842"/>
				<stop  offset="1" style="stop-color:#BA4746"/>
			</linearGradient>
			<polygon fill="url(#SVGID_19_)" points="-888.1,-376.8 -844.9,-446 -942.5,-449.8 			"/>
		</g>
		<linearGradient id="SVGID_20_" gradientUnits="userSpaceOnUse" x1="-941.9016" y1="-469.0561" x2="-843.1971" y2="-309.9972">
			<stop  offset="0" style="stop-color:#F8CC9E"/>
			<stop  offset="0.3061" style="stop-color:#F3B097;stop-opacity:0"/>
		</linearGradient>
		<path fill="url(#SVGID_20_)" d="M-814.5-444.9c-1.4-1.2-2.9-2.3-4.4-3.2l-18.2-10.5l-34.5-19.9c-10.2-5.9-26.9-5.9-37,0
			l-38.6,22.3l-9.9,5.7l-4.1,2.4c-10.2,5.9-18.5,20.3-18.5,32.1v60.8c0,11.8,8.3,26.2,18.5,32.1l26.4,15.3l2.6,1.5l23.6,13.6
			c10.2,5.9,26.9,5.9,37,0l32.2-18.6l20.4-11.8c6.3-3.7,12-10.7,15.3-18.2c2-4.6,3.2-9.4,3.2-13.8v-60.8
			C-800.4-426-806.4-437.9-814.5-444.9z"/>
		<path fill="#FFFFFF" d="M-841.5-338.3h-17.3l-7.1-7.3c-7.6,4.9-16,7.3-25.3,7.3c-12.1,0-22.8-4.1-32.1-12.3
			c-10.2-9-15.3-20.5-15.3-34.5c0-13.7,4.8-25.2,14.4-34.3c9.4-8.9,20.4-13.3,33.1-13.3c11.6,0,21.9,3.9,31.1,11.7
			c11,9.4,16.5,21.6,16.5,36.6c0,11.8-4.3,22.3-13,31.4L-841.5-338.3z M-879.3-376.1l13.2,13.1c5.8-6,8.7-13.5,8.7-22.4
			c0-9.8-3.2-18-9.7-24.6c-6.5-6.6-14.5-9.9-24.2-9.9c-9.7,0-17.8,3.3-24.1,9.9c-6.3,6.6-9.5,14.9-9.5,24.9c0,9.8,3.3,17.8,9.8,24.1
			c6.8,6.4,14.6,9.7,23.3,9.7c5.9,0,11.3-1.4,16.1-4.1l-21.4-20.7H-879.3z"/>
	</g>
</g>
</svg>
