<?xml version="1.0" encoding="utf-8"?>
<!-- Generator: Adobe Illustrator 18.1.0, SVG Export Plug-In . SVG Version: 6.00 Build 0)  -->
<svg version="1.1" id="Lager_1" xmlns="http://www.w3.org/2000/svg" xmlns:xlink="http://www.w3.org/1999/xlink" x="0px" y="0px"
	 viewBox="0 0 1164 332" enable-background="new 0 0 1164 332" xml:space="preserve">
<g>
	<g>
		<path fill="#E64842" d="M143.8,242.7H91.2l-13.7,29.9h-20l60.9-130.7L177,272.6h-20.3L143.8,242.7z M136.3,225.3L118,183.4
			l-19.1,41.8H136.3z"/>
		<path fill="#E64842" d="M310.4,272.6h-23.9l-9.9-10.1c-10.5,6.8-22.2,10.1-35.1,10.1c-16.7,0-31.6-5.7-44.5-17
			c-14.1-12.5-21.2-28.4-21.2-47.8c0-19,6.7-34.9,20-47.5c13-12.3,28.3-18.5,45.9-18.5c16,0,30.4,5.4,43.1,16.2
			c15.2,13,22.9,29.9,22.9,50.7c0,16.3-6,30.9-18.1,43.5L310.4,272.6z M258,220.3l18.3,18.2c8.1-8.4,12.1-18.7,12.1-31.1
			c0-13.5-4.5-24.9-13.5-34c-9-9.1-20.2-13.7-33.5-13.7c-13.5,0-24.6,4.6-33.3,13.7c-8.8,9.1-13.2,20.6-13.2,34.5
			c0,13.6,4.5,24.7,13.6,33.4c9.4,8.9,20.2,13.4,32.3,13.4c8.2,0,15.7-1.9,22.3-5.6l-29.7-28.7H258z"/>
		<path fill="#E64842" d="M347.3,141.8v77.3c0,11,1.8,19.1,5.4,24.2c5.4,7.4,12.9,11.1,22.7,11.1c9.8,0,17.4-3.7,22.8-11.1
			c3.6-4.9,5.4-13,5.4-24.2v-77.3H423v82.7c0,13.5-4.2,24.7-12.6,33.4c-9.5,9.8-21.1,14.6-34.9,14.6c-13.8,0-25.4-4.9-34.9-14.6
			c-8.4-8.8-12.6-19.9-12.6-33.4v-82.7H347.3z"/>
		<path fill="#E64842" d="M470.3,141.8v130.5h-19.4V141.8H470.3z"/>
		<path fill="#E64842" d="M498.3,272.3V141.8l93.7,89.2v-89.2h19.4v130.5l-93.7-92v92H498.3z"/>
		<path fill="#E64842" d="M680.2,160v112.3h-19.4V160h-29.5v-18.2h78.4V160H680.2z"/>
		<path fill="#E64842" d="M773.8,216.8l40.4,55.6h-24.1L752.9,219h-3.5v53.4h-19.7V141.9h23.1c17.2,0,29.7,3.2,37.4,9.7
			c8.5,7.2,12.7,16.7,12.7,28.6c0,9.2-2.6,17.2-7.9,23.8C789.5,210.7,782.5,214.9,773.8,216.8z M749.3,201.8h6.3
			c18.6,0,28-7.1,28-21.4c0-13.4-9.1-20-27.2-20h-7V201.8z"/>
		<path fill="#E64842" d="M912.8,242.7h-52.7l-13.7,29.9h-20l60.9-130.7L946,272.5h-20.3L912.8,242.7z M905.2,225.2L887,183.4
			l-19.1,41.8H905.2z"/>
	</g>
	<g>
		<g>
			<linearGradient id="SVGID_1_" gradientUnits="userSpaceOnUse" x1="985.4731" y1="170.987" x2="1062.6099" y2="170.987">
				<stop  offset="0" style="stop-color:#E64842"/>
				<stop  offset="1" style="stop-color:#BA4746"/>
			</linearGradient>
			<path fill="url(#SVGID_1_)" d="M986.8,170.7l-1.3,2.1l19.6,11.3c8.5,4.9,22.3,4.9,30.8,0l26.7-15.4l-10.9-14.6L986.8,170.7z"/>
			<linearGradient id="SVGID_2_" gradientUnits="userSpaceOnUse" x1="1051.7495" y1="156.2566" x2="1092.3013" y2="156.2566">
				<stop  offset="0" style="stop-color:#E64842"/>
				<stop  offset="1" style="stop-color:#BA4746"/>
			</linearGradient>
			<path fill="url(#SVGID_2_)" d="M1092.3,143.8l-40.6,10.4l10.9,14.6l17-9.8C1084.9,155.9,1089.5,150.1,1092.3,143.8z"/>
			<linearGradient id="SVGID_3_" gradientUnits="userSpaceOnUse" x1="1058.02" y1="52.1238" x2="1083.2104" y2="52.1238">
				<stop  offset="0" style="stop-color:#E64842"/>
				<stop  offset="1" style="stop-color:#BA4746"/>
			</linearGradient>
			<path fill="url(#SVGID_3_)" d="M1083.2,57.8c-1.2-1-2.4-1.9-3.6-2.6l-15.1-8.7l-6.5,10.4L1083.2,57.8z"/>
			<linearGradient id="SVGID_4_" gradientUnits="userSpaceOnUse" x1="964.8237" y1="51.0459" x2="976.9507" y2="51.0459">
				<stop  offset="0" style="stop-color:#E64842"/>
				<stop  offset="1" style="stop-color:#BA4746"/>
			</linearGradient>
			<polygon fill="url(#SVGID_4_)" points="973.1,48.4 964.8,53.2 977,53.7 			"/>
			<polygon fill="#E64842" points="983.3,171.6 985.5,172.8 986.8,170.7 			"/>
			<linearGradient id="SVGID_5_" gradientUnits="userSpaceOnUse" x1="973.061" y1="41.5398" x2="1064.4937" y2="41.5398">
				<stop  offset="0" style="stop-color:#E64842"/>
				<stop  offset="1" style="stop-color:#BA4746"/>
			</linearGradient>
			<path fill="url(#SVGID_5_)" d="M1058,56.8l6.5-10.4l-28.6-16.5c-8.5-4.9-22.3-4.9-30.8,0l-32,18.5l3.9,5.2L1058,56.8z"/>
			<linearGradient id="SVGID_6_" gradientUnits="userSpaceOnUse" x1="986.7905" y1="142.5078" x2="1051.7495" y2="142.5078">
				<stop  offset="0" style="stop-color:#E64842"/>
				<stop  offset="1" style="stop-color:#BA4746"/>
			</linearGradient>
			<polygon fill="url(#SVGID_6_)" points="986.8,170.7 1051.7,154.1 1022.1,114.3 			"/>
			<linearGradient id="SVGID_7_" gradientUnits="userSpaceOnUse" x1="1022.0815" y1="105.4746" x2="1094.9634" y2="105.4746">
				<stop  offset="0" style="stop-color:#E64842"/>
				<stop  offset="1" style="stop-color:#BA4746"/>
			</linearGradient>
			<path fill="url(#SVGID_7_)" d="M1095,81.8c0-8.3-5-18.2-11.8-24l-25.2-1l-35.9,57.5l29.7,39.9l40.6-10.4
				c1.7-3.8,2.7-7.8,2.7-11.5V81.8z"/>
			<linearGradient id="SVGID_8_" gradientUnits="userSpaceOnUse" x1="946.0073" y1="112.3987" x2="1022.0815" y2="112.3987">
				<stop  offset="0" style="stop-color:#E64842"/>
				<stop  offset="1" style="stop-color:#BA4746"/>
			</linearGradient>
			<path fill="url(#SVGID_8_)" d="M977,53.7l-12.1-0.5l-3.4,2C952.9,60.1,946,72,946,81.8v50.5c0,9.8,6.9,21.8,15.4,26.6l22,12.7
				l3.4-0.9l35.3-56.4L977,53.7z"/>
			<linearGradient id="SVGID_9_" gradientUnits="userSpaceOnUse" x1="976.9507" y1="83.9726" x2="1058.02" y2="83.9726">
				<stop  offset="0" style="stop-color:#E64842"/>
				<stop  offset="1" style="stop-color:#BA4746"/>
			</linearGradient>
			<polygon fill="url(#SVGID_9_)" points="1022.1,114.3 1058,56.8 977,53.7 			"/>
		</g>
		<linearGradient id="SVGID_10_" gradientUnits="userSpaceOnUse" x1="977.4358" y1="37.6896" x2="1059.4099" y2="169.788">
			<stop  offset="0" style="stop-color:#F8CC9E"/>
			<stop  offset="0.3061" style="stop-color:#F3B097;stop-opacity:0"/>
		</linearGradient>
		<path fill="url(#SVGID_10_)" d="M1083.2,57.8c-1.2-1-2.4-1.9-3.6-2.6l-15.1-8.7l-28.6-16.5c-8.5-4.9-22.3-4.9-30.8,0l-32,18.5
			l-8.2,4.8l-3.4,2C952.9,60.1,946,72,946,81.8v50.5c0,9.8,6.9,21.8,15.4,26.6l22,12.7l2.1,1.2l19.6,11.3c8.5,4.9,22.3,4.9,30.8,0
			l26.7-15.4l17-9.8c5.3-3,9.9-8.8,12.7-15.1c1.7-3.8,2.7-7.8,2.7-11.5V81.8C1095,73.5,1089.9,63.6,1083.2,57.8z"/>
		<path fill="#FFFFFF" d="M1060.8,146.2h-14.3l-5.9-6.1c-6.3,4-13.3,6.1-21.1,6.1c-10,0-18.9-3.4-26.7-10.2
			c-8.5-7.5-12.7-17-12.7-28.6c0-11.4,4-20.9,12-28.5c7.8-7.4,16.9-11.1,27.5-11.1c9.6,0,18.2,3.2,25.8,9.7
			c9.1,7.8,13.7,17.9,13.7,30.4c0,9.8-3.6,18.5-10.8,26.1L1060.8,146.2z M1029.4,114.9l11,10.9c4.8-5,7.2-11.2,7.2-18.6
			c0-8.1-2.7-14.9-8.1-20.4c-5.4-5.5-12.1-8.2-20.1-8.2c-8.1,0-14.8,2.7-20,8.2c-5.3,5.4-7.9,12.3-7.9,20.7c0,8.2,2.7,14.8,8.1,20
			c5.6,5.3,12.1,8,19.3,8c4.9,0,9.4-1.1,13.4-3.4l-17.8-17.2H1029.4z"/>
	</g>
</g>
<g>
	<g>
		<path fill="#E64842" d="M270.3,898.2h-36l-9.4,20.4h-13.7l41.7-89.5l40.2,89.5h-13.9L270.3,898.2z M265.1,886.3l-12.5-28.6
			l-13.1,28.6H265.1z"/>
		<path fill="#E64842" d="M384.3,918.7h-16.4l-6.8-6.9c-7.2,4.6-15.2,6.9-24,6.9c-11.4,0-21.6-3.9-30.5-11.6
			c-9.7-8.5-14.5-19.4-14.5-32.7c0-13,4.6-23.9,13.7-32.5c8.9-8.4,19.3-12.6,31.4-12.6c11,0,20.8,3.7,29.5,11.1
			c10.4,8.9,15.7,20.4,15.7,34.7c0,11.2-4.1,21.1-12.4,29.8L384.3,918.7z M348.4,882.9l12.5,12.5c5.5-5.7,8.3-12.8,8.3-21.3
			c0-9.3-3.1-17-9.2-23.3c-6.2-6.3-13.8-9.4-22.9-9.4c-9.2,0-16.9,3.1-22.8,9.4c-6,6.2-9,14.1-9,23.6c0,9.3,3.1,16.9,9.3,22.9
			c6.4,6.1,13.8,9.2,22.1,9.2c5.6,0,10.7-1.3,15.3-3.9l-20.3-19.7H348.4z"/>
		<path fill="#E64842" d="M409.5,829.2v52.9c0,7.5,1.2,13.1,3.7,16.6c3.7,5,8.9,7.6,15.5,7.6c6.7,0,11.9-2.5,15.6-7.6
			c2.5-3.4,3.7-8.9,3.7-16.6v-52.9h13.3v56.6c0,9.3-2.9,16.9-8.7,22.9c-6.5,6.7-14.5,10-23.9,10c-9.5,0-17.4-3.3-23.9-10
			c-5.8-6-8.7-13.6-8.7-22.9v-56.6H409.5z"/>
		<path fill="#E64842" d="M493.7,829.2v89.3h-13.3v-89.3H493.7z"/>
		<path fill="#E64842" d="M512.9,918.5v-89.3l64.1,61.1v-61.1h13.3v89.3l-64.1-63v63H512.9z"/>
		<path fill="#E64842" d="M637.4,841.6v76.9h-13.3v-76.9h-20.2v-12.5h53.6v12.5H637.4z"/>
		<path fill="#E64842" d="M701.5,880.5l27.7,38.1h-16.5L687.1,882h-2.4v36.6h-13.5v-89.3H687c11.8,0,20.3,2.2,25.6,6.7
			c5.8,4.9,8.7,11.5,8.7,19.6c0,6.3-1.8,11.8-5.4,16.3C712.2,876.3,707.4,879.2,701.5,880.5z M684.7,870.3h4.3
			c12.8,0,19.1-4.9,19.1-14.6c0-9.1-6.2-13.7-18.6-13.7h-4.8V870.3z"/>
		<path fill="#E64842" d="M796.6,898.2h-36l-9.4,20.4h-13.7l41.7-89.5l40.2,89.5h-13.9L796.6,898.2z M791.4,886.3l-12.5-28.6
			l-13.1,28.6H791.4z"/>
	</g>
	<g display="none">
		<g>
			<linearGradient id="SVGID_11_" gradientUnits="userSpaceOnUse" x1="473.0937" y1="773.9314" x2="565.9775" y2="773.9314">
				<stop  offset="0" style="stop-color:#E64842"/>
				<stop  offset="1" style="stop-color:#BA4746"/>
			</linearGradient>
			<path display="inline" fill="url(#SVGID_11_)" d="M474.7,773.6l-1.6,2.5l23.6,13.6c10.2,5.9,26.9,5.9,37,0l32.2-18.6l-13.1-17.6
				L474.7,773.6z"/>
			<linearGradient id="SVGID_12_" gradientUnits="userSpaceOnUse" x1="552.8975" y1="756.1948" x2="601.7256" y2="756.1948">
				<stop  offset="0" style="stop-color:#E64842"/>
				<stop  offset="1" style="stop-color:#BA4746"/>
			</linearGradient>
			<path display="inline" fill="url(#SVGID_12_)" d="M601.7,741.2l-48.8,12.5l13.1,17.6l20.4-11.8
				C592.8,755.8,598.4,748.8,601.7,741.2z"/>
			<linearGradient id="SVGID_13_" gradientUnits="userSpaceOnUse" x1="560.4482" y1="630.8086" x2="590.7812" y2="630.8086">
				<stop  offset="0" style="stop-color:#E64842"/>
				<stop  offset="1" style="stop-color:#BA4746"/>
			</linearGradient>
			<path display="inline" fill="url(#SVGID_13_)" d="M590.8,637.6c-1.4-1.2-2.9-2.3-4.4-3.2L568.2,624l-7.8,12.5L590.8,637.6z"/>
			<linearGradient id="SVGID_14_" gradientUnits="userSpaceOnUse" x1="448.2319" y1="629.5107" x2="462.835" y2="629.5107">
				<stop  offset="0" style="stop-color:#E64842"/>
				<stop  offset="1" style="stop-color:#BA4746"/>
			</linearGradient>
			<polygon display="inline" fill="url(#SVGID_14_)" points="458.1,626.4 448.2,632.1 462.8,632.7 			"/>
			<polygon display="inline" fill="#E64842" points="470.5,774.7 473.1,776.2 474.7,773.6 			"/>
			<linearGradient id="SVGID_15_" gradientUnits="userSpaceOnUse" x1="458.1475" y1="618.0644" x2="568.2422" y2="618.0644">
				<stop  offset="0" style="stop-color:#E64842"/>
				<stop  offset="1" style="stop-color:#BA4746"/>
			</linearGradient>
			<path display="inline" fill="url(#SVGID_15_)" d="M560.4,636.5l7.8-12.5l-34.5-19.9c-10.2-5.9-26.9-5.9-37,0l-38.6,22.3l4.7,6.3
				L560.4,636.5z"/>
			<linearGradient id="SVGID_16_" gradientUnits="userSpaceOnUse" x1="474.6826" y1="739.6406" x2="552.8975" y2="739.6406">
				<stop  offset="0" style="stop-color:#E64842"/>
				<stop  offset="1" style="stop-color:#BA4746"/>
			</linearGradient>
			<polygon display="inline" fill="url(#SVGID_16_)" points="474.7,773.6 552.9,753.6 517.2,705.7 			"/>
			<linearGradient id="SVGID_17_" gradientUnits="userSpaceOnUse" x1="517.1768" y1="695.0479" x2="604.9326" y2="695.0479">
				<stop  offset="0" style="stop-color:#E64842"/>
				<stop  offset="1" style="stop-color:#BA4746"/>
			</linearGradient>
			<path display="inline" fill="url(#SVGID_17_)" d="M604.9,666.6c0-10-6.1-22-14.2-28.9l-30.3-1.2l-43.3,69.2l35.7,48l48.8-12.5
				c2-4.6,3.2-9.4,3.2-13.8V666.6z"/>
			<linearGradient id="SVGID_18_" gradientUnits="userSpaceOnUse" x1="425.5723" y1="703.3853" x2="517.1768" y2="703.3853">
				<stop  offset="0" style="stop-color:#E64842"/>
				<stop  offset="1" style="stop-color:#BA4746"/>
			</linearGradient>
			<path display="inline" fill="url(#SVGID_18_)" d="M462.8,632.7l-14.6-0.6l-4.1,2.4c-10.2,5.9-18.5,20.3-18.5,32.1v60.8
				c0,11.8,8.3,26.2,18.5,32.1l26.4,15.3l4.2-1.1l42.5-68L462.8,632.7z"/>
			<linearGradient id="SVGID_19_" gradientUnits="userSpaceOnUse" x1="462.835" y1="669.1582" x2="560.4482" y2="669.1582">
				<stop  offset="0" style="stop-color:#E64842"/>
				<stop  offset="1" style="stop-color:#BA4746"/>
			</linearGradient>
			<polygon display="inline" fill="url(#SVGID_19_)" points="517.2,705.7 560.4,636.5 462.8,632.7 			"/>
		</g>
		<linearGradient id="SVGID_20_" gradientUnits="userSpaceOnUse" x1="463.4177" y1="613.4292" x2="562.1223" y2="772.4882">
			<stop  offset="0" style="stop-color:#F8CC9E"/>
			<stop  offset="0.3061" style="stop-color:#F3B097;stop-opacity:0"/>
		</linearGradient>
		<path fill="url(#SVGID_20_)" d="M590.8,637.6c-1.4-1.2-2.9-2.3-4.4-3.2L568.2,624l-34.5-19.9c-10.2-5.9-26.9-5.9-37,0l-38.6,22.3
			l-9.9,5.7l-4.1,2.4c-10.2,5.9-18.5,20.3-18.5,32.1v60.8c0,11.8,8.3,26.2,18.5,32.1l26.4,15.3l2.6,1.5l23.6,13.6
			c10.2,5.9,26.9,5.9,37,0l32.2-18.6l20.4-11.8c6.3-3.7,12-10.7,15.3-18.2c2-4.6,3.2-9.4,3.2-13.8v-60.8
			C604.9,656.5,598.9,644.6,590.8,637.6z"/>
		<path fill="#FFFFFF" d="M563.8,744.1h-17.3l-7.1-7.3c-7.6,4.9-16,7.3-25.3,7.3c-12.1,0-22.8-4.1-32.1-12.3
			c-10.2-9-15.3-20.5-15.3-34.5c0-13.7,4.8-25.2,14.4-34.3c9.4-8.9,20.4-13.3,33.1-13.3c11.6,0,21.9,3.9,31.1,11.7
			c11,9.4,16.5,21.6,16.5,36.6c0,11.8-4.3,22.3-13,31.4L563.8,744.1z M526,706.4l13.2,13.1c5.8-6,8.7-13.5,8.7-22.4
			c0-9.8-3.2-18-9.7-24.6c-6.5-6.6-14.5-9.9-24.2-9.9c-9.7,0-17.8,3.3-24.1,9.9c-6.3,6.6-9.5,14.9-9.5,24.9c0,9.8,3.3,17.8,9.8,24.1
			c6.8,6.4,14.6,9.7,23.3,9.7c5.9,0,11.3-1.4,16.1-4.1l-21.4-20.7H526z"/>
	</g>
	<g>
		<g display="none">
			<linearGradient id="SVGID_21_" gradientUnits="userSpaceOnUse" x1="-764.2256" y1="227.0359" x2="-671.3418" y2="227.0359">
				<stop  offset="0" style="stop-color:#E64842"/>
				<stop  offset="1" style="stop-color:#BA4746"/>
			</linearGradient>
			<path display="inline" fill="url(#SVGID_21_)" d="M-762.6,226.7l-1.6,2.5l23.6,13.6c10.2,5.9,26.9,5.9,37,0l32.2-18.6l-13.1-17.6
				L-762.6,226.7z"/>
			<linearGradient id="SVGID_22_" gradientUnits="userSpaceOnUse" x1="-684.4219" y1="209.2993" x2="-635.5938" y2="209.2993">
				<stop  offset="0" style="stop-color:#E64842"/>
				<stop  offset="1" style="stop-color:#BA4746"/>
			</linearGradient>
			<path display="inline" fill="url(#SVGID_22_)" d="M-635.6,194.3l-48.8,12.5l13.1,17.6l20.4-11.8
				C-644.6,208.9-638.9,201.9-635.6,194.3z"/>
			<linearGradient id="SVGID_23_" gradientUnits="userSpaceOnUse" x1="-676.8711" y1="83.9131" x2="-646.5381" y2="83.9131">
				<stop  offset="0" style="stop-color:#E64842"/>
				<stop  offset="1" style="stop-color:#BA4746"/>
			</linearGradient>
			<path display="inline" fill="url(#SVGID_23_)" d="M-646.5,90.7c-1.4-1.2-2.9-2.3-4.4-3.2l-18.2-10.5l-7.8,12.5L-646.5,90.7z"/>
			<linearGradient id="SVGID_24_" gradientUnits="userSpaceOnUse" x1="-789.0874" y1="82.6152" x2="-774.4844" y2="82.6152">
				<stop  offset="0" style="stop-color:#E64842"/>
				<stop  offset="1" style="stop-color:#BA4746"/>
			</linearGradient>
			<polygon display="inline" fill="url(#SVGID_24_)" points="-779.2,79.5 -789.1,85.2 -774.5,85.8 			"/>
			<polygon display="inline" fill="#E64842" points="-766.8,227.8 -764.2,229.3 -762.6,226.7 			"/>
			<linearGradient id="SVGID_25_" gradientUnits="userSpaceOnUse" x1="-779.1719" y1="71.1689" x2="-669.0771" y2="71.1689">
				<stop  offset="0" style="stop-color:#E64842"/>
				<stop  offset="1" style="stop-color:#BA4746"/>
			</linearGradient>
			<path display="inline" fill="url(#SVGID_25_)" d="M-676.9,89.6l7.8-12.5l-34.5-19.9c-10.2-5.9-26.9-5.9-37,0l-38.6,22.3l4.7,6.3
				L-676.9,89.6z"/>
			<linearGradient id="SVGID_26_" gradientUnits="userSpaceOnUse" x1="-762.6367" y1="192.7451" x2="-684.4219" y2="192.7451">
				<stop  offset="0" style="stop-color:#E64842"/>
				<stop  offset="1" style="stop-color:#BA4746"/>
			</linearGradient>
			<polygon display="inline" fill="url(#SVGID_26_)" points="-762.6,226.7 -684.4,206.7 -720.1,158.8 			"/>
			<linearGradient id="SVGID_27_" gradientUnits="userSpaceOnUse" x1="-720.1426" y1="148.1523" x2="-632.3867" y2="148.1523">
				<stop  offset="0" style="stop-color:#E64842"/>
				<stop  offset="1" style="stop-color:#BA4746"/>
			</linearGradient>
			<path display="inline" fill="url(#SVGID_27_)" d="M-632.4,119.7c0-10-6.1-22-14.2-28.9l-30.3-1.2l-43.3,69.2l35.7,48l48.8-12.5
				c2-4.6,3.2-9.4,3.2-13.8V119.7z"/>
			<linearGradient id="SVGID_28_" gradientUnits="userSpaceOnUse" x1="-811.7471" y1="156.4897" x2="-720.1426" y2="156.4897">
				<stop  offset="0" style="stop-color:#E64842"/>
				<stop  offset="1" style="stop-color:#BA4746"/>
			</linearGradient>
			<path display="inline" fill="url(#SVGID_28_)" d="M-774.5,85.8l-14.6-0.6l-4.1,2.4c-10.2,5.9-18.5,20.3-18.5,32.1v60.8
				c0,11.8,8.3,26.2,18.5,32.1l26.4,15.3l4.2-1.1l42.5-68L-774.5,85.8z"/>
			<linearGradient id="SVGID_29_" gradientUnits="userSpaceOnUse" x1="-774.4844" y1="122.2627" x2="-676.8711" y2="122.2627">
				<stop  offset="0" style="stop-color:#E64842"/>
				<stop  offset="1" style="stop-color:#BA4746"/>
			</linearGradient>
			<polygon display="inline" fill="url(#SVGID_29_)" points="-720.1,158.8 -676.9,89.6 -774.5,85.8 			"/>
		</g>
		<linearGradient id="SVGID_30_" gradientUnits="userSpaceOnUse" x1="-773.9016" y1="66.5337" x2="-675.1971" y2="225.5926">
			<stop  offset="0" style="stop-color:#F8CC9E"/>
			<stop  offset="0.3061" style="stop-color:#F3B097;stop-opacity:0"/>
		</linearGradient>
		<path display="none" fill="url(#SVGID_30_)" d="M-646.5,90.7c-1.4-1.2-2.9-2.3-4.4-3.2l-18.2-10.5l-34.5-19.9
			c-10.2-5.9-26.9-5.9-37,0l-38.6,22.3l-9.9,5.7l-4.1,2.4c-10.2,5.9-18.5,20.3-18.5,32.1v60.8c0,11.8,8.3,26.2,18.5,32.1l26.4,15.3
			l2.6,1.5l23.6,13.6c10.2,5.9,26.9,5.9,37,0l32.2-18.6l20.4-11.8c6.3-3.7,12-10.7,15.3-18.2c2-4.6,3.2-9.4,3.2-13.8v-60.8
			C-632.4,109.6-638.4,97.7-646.5,90.7z"/>
		<path display="none" fill="#FFFFFF" d="M-673.5,197.2h-17.3l-7.1-7.3c-7.6,4.9-16,7.3-25.3,7.3c-12.1,0-22.8-4.1-32.1-12.3
			c-10.2-9-15.3-20.5-15.3-34.5c0-13.7,4.8-25.2,14.4-34.3c9.4-8.9,20.4-13.3,33.1-13.3c11.6,0,21.9,3.9,31.1,11.7
			c11,9.4,16.5,21.6,16.5,36.6c0,11.8-4.3,22.3-13,31.4L-673.5,197.2z M-711.3,159.5l13.2,13.1c5.8-6,8.7-13.5,8.7-22.4
			c0-9.8-3.2-18-9.7-24.6c-6.5-6.6-14.5-9.9-24.2-9.9c-9.7,0-17.8,3.3-24.1,9.9c-6.3,6.6-9.5,14.9-9.5,24.9c0,9.8,3.3,17.8,9.8,24.1
			c6.8,6.4,14.6,9.7,23.3,9.7c5.9,0,11.3-1.4,16.1-4.1l-21.4-20.7H-711.3z"/>
	</g>
</g>
</svg>
